<mxfile host="" modified="2020-05-24T15:21:41.060Z" agent="5.0 (X11; Linux x86_64) AppleWebKit/537.36 (KHTML, like Gecko) Code/1.45.0 Chrome/78.0.3904.130 Electron/7.2.4 Safari/537.36" version="13.1.3" etag="lrwgP8mNOWNbAz78NI_h" pages="2">
            <diagram id="diagramid" name="Diagram">
              <mxGraphModel><root><mxCell id="0"/><mxCell id="1" parent="0"/><mxCell id="2" value="ApiGatewaySecretKeyResource" style="outlineConnect=0;fontColor=#B3B3B3;gradientColor=#F54749;gradientDirection=north;fillColor=#C7131F;strokeColor=#ffffff;dashed=0;verticalLabelPosition=bottom;verticalAlign=top;align=center;html=1;fontSize=12;fontStyle=0;aspect=fixed;shape=mxgraph.aws4.resourceIcon;resIcon=mxgraph.aws4.secretsmanager;" vertex="1" parent="1"><mxGeometry x="750" y="1425" width="50" height="50" as="geometry"/></mxCell><mxCell id="3" value="CustomAuthorizer" style="outlineConnect=0;fontColor=#B3B3B3;gradientColor=#F78E04;gradientDirection=north;fillColor=#D05C17;strokeColor=#ffffff;dashed=0;verticalLabelPosition=bottom;verticalAlign=top;align=center;html=1;fontSize=12;fontStyle=0;aspect=fixed;shape=mxgraph.aws4.resourceIcon;resIcon=mxgraph.aws4.lambda;" vertex="1" parent="1"><mxGeometry x="250" y="1000" width="50" height="50" as="geometry"/></mxCell><mxCell id="4" value="CustomAuthorizerRole" style="outlineConnect=0;fontColor=#B3B3B3;gradientColor=#F54749;gradientDirection=north;fillColor=#C7131F;strokeColor=#ffffff;dashed=0;verticalLabelPosition=bottom;verticalAlign=top;align=center;html=1;fontSize=12;fontStyle=0;aspect=fixed;shape=mxgraph.aws4.resourceIcon;resIcon=mxgraph.aws4.role;" vertex="1" parent="1"><mxGeometry x="500" y="1500" width="50" height="50" as="geometry"/></mxCell><mxCell id="5" value="ApiGatewayEndpoint" style="outlineConnect=0;fontColor=#B3B3B3;gradientColor=#945DF2;gradientDirection=north;fillColor=#5A30B5;strokeColor=#ffffff;dashed=0;verticalLabelPosition=bottom;verticalAlign=top;align=center;html=1;fontSize=12;fontStyle=0;aspect=fixed;shape=mxgraph.aws4.resourceIcon;resIcon=mxgraph.aws4.api_gateway;" vertex="1" parent="1"><mxGeometry y="850" width="50" height="50" as="geometry"/></mxCell><mxCell id="6" value="ExpeDatSSMRunDocumet" style="outlineConnect=0;fontColor=#B3B3B3;gradientColor=#F78E04;gradientDirection=north;fillColor=#D05C17;strokeColor=#ffffff;dashed=0;verticalLabelPosition=bottom;verticalAlign=top;align=center;html=1;fontSize=12;fontStyle=0;aspect=fixed;shape=mxgraph.aws4.resourceIcon;resIcon=mxgraph.aws4.lambda;" vertex="1" parent="1"><mxGeometry x="250" y="800" width="50" height="50" as="geometry"/></mxCell><mxCell id="7" value="ExpeDatCancelRunDocument" style="outlineConnect=0;fontColor=#B3B3B3;gradientColor=#F78E04;gradientDirection=north;fillColor=#D05C17;strokeColor=#ffffff;dashed=0;verticalLabelPosition=bottom;verticalAlign=top;align=center;html=1;fontSize=12;fontStyle=0;aspect=fixed;shape=mxgraph.aws4.resourceIcon;resIcon=mxgraph.aws4.lambda;" vertex="1" parent="1"><mxGeometry x="250" y="568.75" width="50" height="50" as="geometry"/></mxCell><mxCell id="8" value="ExpeDatCancelRunDocumentRole" style="outlineConnect=0;fontColor=#B3B3B3;gradientColor=#F54749;gradientDirection=north;fillColor=#C7131F;strokeColor=#ffffff;dashed=0;verticalLabelPosition=bottom;verticalAlign=top;align=center;html=1;fontSize=12;fontStyle=0;aspect=fixed;shape=mxgraph.aws4.resourceIcon;resIcon=mxgraph.aws4.role;" vertex="1" parent="1"><mxGeometry x="500" y="650" width="50" height="50" as="geometry"/></mxCell><mxCell id="9" value="GeneratedPresignedURL" style="outlineConnect=0;fontColor=#B3B3B3;gradientColor=#F78E04;gradientDirection=north;fillColor=#D05C17;strokeColor=#ffffff;dashed=0;verticalLabelPosition=bottom;verticalAlign=top;align=center;html=1;fontSize=12;fontStyle=0;aspect=fixed;shape=mxgraph.aws4.resourceIcon;resIcon=mxgraph.aws4.lambda;" vertex="1" parent="1"><mxGeometry x="750" y="425" width="50" height="50" as="geometry"/></mxCell><mxCell id="10" value="GeneratedPresignedURLRole" style="outlineConnect=0;fontColor=#B3B3B3;gradientColor=#F54749;gradientDirection=north;fillColor=#C7131F;strokeColor=#ffffff;dashed=0;verticalLabelPosition=bottom;verticalAlign=top;align=center;html=1;fontSize=12;fontStyle=0;aspect=fixed;shape=mxgraph.aws4.resourceIcon;resIcon=mxgraph.aws4.role;" vertex="1" parent="1"><mxGeometry x="1000" y="50" width="50" height="50" as="geometry"/></mxCell><mxCell id="11" value="ValidateTransfer" style="outlineConnect=0;fontColor=#B3B3B3;gradientColor=#F78E04;gradientDirection=north;fillColor=#D05C17;strokeColor=#ffffff;dashed=0;verticalLabelPosition=bottom;verticalAlign=top;align=center;html=1;fontSize=12;fontStyle=0;aspect=fixed;shape=mxgraph.aws4.resourceIcon;resIcon=mxgraph.aws4.lambda;" vertex="1" parent="1"><mxGeometry x="750" y="275" width="50" height="50" as="geometry"/></mxCell><mxCell id="12" value="ValidateTransferRole" style="outlineConnect=0;fontColor=#B3B3B3;gradientColor=#F54749;gradientDirection=north;fillColor=#C7131F;strokeColor=#ffffff;dashed=0;verticalLabelPosition=bottom;verticalAlign=top;align=center;html=1;fontSize=12;fontStyle=0;aspect=fixed;shape=mxgraph.aws4.resourceIcon;resIcon=mxgraph.aws4.role;" vertex="1" parent="1"><mxGeometry x="1000" y="150" width="50" height="50" as="geometry"/></mxCell><mxCell id="13" value="ApiGatewayS3Verify" style="outlineConnect=0;fontColor=#B3B3B3;gradientColor=#945DF2;gradientDirection=north;fillColor=#5A30B5;strokeColor=#ffffff;dashed=0;verticalLabelPosition=bottom;verticalAlign=top;align=center;html=1;fontSize=12;fontStyle=0;aspect=fixed;shape=mxgraph.aws4.resourceIcon;resIcon=mxgraph.aws4.api_gateway;" vertex="1" parent="1"><mxGeometry x="500" y="250" width="50" height="50" as="geometry"/></mxCell><mxCell id="14" value="ExpeDatSSMInvocationQuery" style="outlineConnect=0;fontColor=#B3B3B3;gradientColor=#F78E04;gradientDirection=north;fillColor=#D05C17;strokeColor=#ffffff;dashed=0;verticalLabelPosition=bottom;verticalAlign=top;align=center;html=1;fontSize=12;fontStyle=0;aspect=fixed;shape=mxgraph.aws4.resourceIcon;resIcon=mxgraph.aws4.lambda;" vertex="1" parent="1"><mxGeometry x="250" y="900" width="50" height="50" as="geometry"/></mxCell><mxCell id="15" value="SSMAgentActivation" style="outlineConnect=0;fontColor=#B3B3B3;gradientColor=#F78E04;gradientDirection=north;fillColor=#D05C17;strokeColor=#ffffff;dashed=0;verticalLabelPosition=bottom;verticalAlign=top;align=center;html=1;fontSize=12;fontStyle=0;aspect=fixed;shape=mxgraph.aws4.resourceIcon;resIcon=mxgraph.aws4.lambda;" vertex="1" parent="1"><mxGeometry x="750" y="1225" width="50" height="50" as="geometry"/></mxCell><mxCell id="16" value="SSMNotification" style="outlineConnect=0;fontColor=#B3B3B3;gradientColor=#F78E04;gradientDirection=north;fillColor=#D05C17;strokeColor=#ffffff;dashed=0;verticalLabelPosition=bottom;verticalAlign=top;align=center;html=1;fontSize=12;fontStyle=0;aspect=fixed;shape=mxgraph.aws4.resourceIcon;resIcon=mxgraph.aws4.lambda;" vertex="1" parent="1"><mxGeometry x="1000" y="1650" width="50" height="50" as="geometry"/></mxCell><mxCell id="17" value="SSMNotificationRole" style="outlineConnect=0;fontColor=#B3B3B3;gradientColor=#F54749;gradientDirection=north;fillColor=#C7131F;strokeColor=#ffffff;dashed=0;verticalLabelPosition=bottom;verticalAlign=top;align=center;html=1;fontSize=12;fontStyle=0;aspect=fixed;shape=mxgraph.aws4.resourceIcon;resIcon=mxgraph.aws4.role;" vertex="1" parent="1"><mxGeometry x="1250" y="1250" width="50" height="50" as="geometry"/></mxCell><mxCell id="18" value="SSMActivationApi" style="outlineConnect=0;fontColor=#B3B3B3;gradientColor=#945DF2;gradientDirection=north;fillColor=#5A30B5;strokeColor=#ffffff;dashed=0;verticalLabelPosition=bottom;verticalAlign=top;align=center;html=1;fontSize=12;fontStyle=0;aspect=fixed;shape=mxgraph.aws4.resourceIcon;resIcon=mxgraph.aws4.api_gateway;" vertex="1" parent="1"><mxGeometry x="500" y="1200" width="50" height="50" as="geometry"/></mxCell><mxCell id="19" value="SSMInstallScriptGenerator" style="outlineConnect=0;fontColor=#B3B3B3;gradientColor=#F78E04;gradientDirection=north;fillColor=#D05C17;strokeColor=#ffffff;dashed=0;verticalLabelPosition=bottom;verticalAlign=top;align=center;html=1;fontSize=12;fontStyle=0;aspect=fixed;shape=mxgraph.aws4.resourceIcon;resIcon=mxgraph.aws4.lambda;" vertex="1" parent="1"><mxGeometry x="250" y="1100" width="50" height="50" as="geometry"/></mxCell><mxCell id="20" value="SSMInstallScriptGeneratorApi" style="outlineConnect=0;fontColor=#B3B3B3;gradientColor=#945DF2;gradientDirection=north;fillColor=#5A30B5;strokeColor=#ffffff;dashed=0;verticalLabelPosition=bottom;verticalAlign=top;align=center;html=1;fontSize=12;fontStyle=0;aspect=fixed;shape=mxgraph.aws4.resourceIcon;resIcon=mxgraph.aws4.api_gateway;" vertex="1" parent="1"><mxGeometry y="1075" width="50" height="50" as="geometry"/></mxCell><mxCell id="21" value="SSMInstallScriptGeneratorRole" style="outlineConnect=0;fontColor=#B3B3B3;gradientColor=#F54749;gradientDirection=north;fillColor=#C7131F;strokeColor=#ffffff;dashed=0;verticalLabelPosition=bottom;verticalAlign=top;align=center;html=1;fontSize=12;fontStyle=0;aspect=fixed;shape=mxgraph.aws4.resourceIcon;resIcon=mxgraph.aws4.role;" vertex="1" parent="1"><mxGeometry x="500" y="1300" width="50" height="50" as="geometry"/></mxCell><mxCell id="22" value="CommonLambdaLayer" style="outlineConnect=0;fontColor=#B3B3B3;gradientColor=#aaaaaa;gradientDirection=north;fillColor=#aaaaaa;strokeColor=#ffffff;dashed=0;verticalLabelPosition=bottom;verticalAlign=top;align=center;html=1;fontSize=12;fontStyle=0;aspect=fixed;shape=mxgraph.aws4.resourceIcon;resIcon=mxgraph.aws4.serverless;" vertex="1" parent="1"><mxGeometry x="1250" y="1150" width="50" height="50" as="geometry"/></mxCell><mxCell id="23" value="ExpeDatSSMRunDocumetRole" style="outlineConnect=0;fontColor=#B3B3B3;gradientColor=#F54749;gradientDirection=north;fillColor=#C7131F;strokeColor=#ffffff;dashed=0;verticalLabelPosition=bottom;verticalAlign=top;align=center;html=1;fontSize=12;fontStyle=0;aspect=fixed;shape=mxgraph.aws4.resourceIcon;resIcon=mxgraph.aws4.role;" vertex="1" parent="1"><mxGeometry x="500" y="850" width="50" height="50" as="geometry"/></mxCell><mxCell id="24" value="ExpeDatSSMInvocationQueryRole" style="outlineConnect=0;fontColor=#B3B3B3;gradientColor=#F54749;gradientDirection=north;fillColor=#C7131F;strokeColor=#ffffff;dashed=0;verticalLabelPosition=bottom;verticalAlign=top;align=center;html=1;fontSize=12;fontStyle=0;aspect=fixed;shape=mxgraph.aws4.resourceIcon;resIcon=mxgraph.aws4.role;" vertex="1" parent="1"><mxGeometry x="500" y="1050" width="50" height="50" as="geometry"/></mxCell><mxCell id="25" value="SSMAgentActivationRole" style="outlineConnect=0;fontColor=#B3B3B3;gradientColor=#F54749;gradientDirection=north;fillColor=#C7131F;strokeColor=#ffffff;dashed=0;verticalLabelPosition=bottom;verticalAlign=top;align=center;html=1;fontSize=12;fontStyle=0;aspect=fixed;shape=mxgraph.aws4.resourceIcon;resIcon=mxgraph.aws4.role;" vertex="1" parent="1"><mxGeometry x="1000" y="1550" width="50" height="50" as="geometry"/></mxCell><mxCell id="26" value="SSMAgentRole" style="outlineConnect=0;fontColor=#B3B3B3;gradientColor=#F54749;gradientDirection=north;fillColor=#C7131F;strokeColor=#ffffff;dashed=0;verticalLabelPosition=bottom;verticalAlign=top;align=center;html=1;fontSize=12;fontStyle=0;aspect=fixed;shape=mxgraph.aws4.resourceIcon;resIcon=mxgraph.aws4.role;" vertex="1" parent="1"><mxGeometry x="1250" y="1350" width="50" height="50" as="geometry"/></mxCell><mxCell id="27" value="SNSNotificationTopic" style="outlineConnect=0;fontColor=#B3B3B3;gradientColor=#F34482;gradientDirection=north;fillColor=#BC1356;strokeColor=#ffffff;dashed=0;verticalLabelPosition=bottom;verticalAlign=top;align=center;html=1;fontSize=12;fontStyle=0;aspect=fixed;shape=mxgraph.aws4.resourceIcon;resIcon=mxgraph.aws4.sns;" vertex="1" parent="1"><mxGeometry x="750" y="1325" width="50" height="50" as="geometry"/></mxCell><mxCell id="28" value="SSMSNSPublishRole" style="outlineConnect=0;fontColor=#B3B3B3;gradientColor=#F54749;gradientDirection=north;fillColor=#C7131F;strokeColor=#ffffff;dashed=0;verticalLabelPosition=bottom;verticalAlign=top;align=center;html=1;fontSize=12;fontStyle=0;aspect=fixed;shape=mxgraph.aws4.resourceIcon;resIcon=mxgraph.aws4.role;" vertex="1" parent="1"><mxGeometry x="1250" y="1050" width="50" height="50" as="geometry"/></mxCell><mxCell id="29" value="SSMDocument" style="outlineConnect=0;fontColor=#B3B3B3;gradientColor=#aaaaaa;gradientDirection=north;fillColor=#aaaaaa;strokeColor=#ffffff;dashed=0;verticalLabelPosition=bottom;verticalAlign=top;align=center;html=1;fontSize=12;fontStyle=0;aspect=fixed;shape=mxgraph.aws4.resourceIcon;resIcon=mxgraph.aws4.ssm;" vertex="1" parent="1"><mxGeometry x="1250" y="1587.5" width="50" height="50" as="geometry"/></mxCell><mxCell id="30" value="InstallDependency" style="outlineConnect=0;fontColor=#B3B3B3;gradientColor=#aaaaaa;gradientDirection=north;fillColor=#aaaaaa;strokeColor=#ffffff;dashed=0;verticalLabelPosition=bottom;verticalAlign=top;align=center;html=1;fontSize=12;fontStyle=0;aspect=fixed;shape=mxgraph.aws4.resourceIcon;resIcon=mxgraph.aws4.ssm;" vertex="1" parent="1"><mxGeometry x="1000" y="1400" width="50" height="50" as="geometry"/></mxCell><mxCell id="31" value="ServerHashGenerator" style="outlineConnect=0;fontColor=#B3B3B3;gradientColor=#aaaaaa;gradientDirection=north;fillColor=#aaaaaa;strokeColor=#ffffff;dashed=0;verticalLabelPosition=bottom;verticalAlign=top;align=center;html=1;fontSize=12;fontStyle=0;aspect=fixed;shape=mxgraph.aws4.resourceIcon;resIcon=mxgraph.aws4.ssm;" vertex="1" parent="1"><mxGeometry x="500" y="550" width="50" height="50" as="geometry"/></mxCell><mxCell id="32" value="ExpeDatUserParameterName" style="outlineConnect=0;fontColor=#B3B3B3;gradientColor=#F34482;gradientDirection=north;fillColor=#BC1356;strokeColor=#ffffff;dashed=0;verticalLabelPosition=bottom;verticalAlign=top;align=center;html=1;fontSize=12;fontStyle=0;aspect=fixed;shape=mxgraph.aws4.resourceIcon;resIcon=mxgraph.aws4.parameter_store;" vertex="1" parent="1"><mxGeometry x="1500" y="1587.5" width="50" height="50" as="geometry"/></mxCell><mxCell id="33" value="ExpeDatPassParameterName" style="outlineConnect=0;fontColor=#B3B3B3;gradientColor=#F34482;gradientDirection=north;fillColor=#BC1356;strokeColor=#ffffff;dashed=0;verticalLabelPosition=bottom;verticalAlign=top;align=center;html=1;fontSize=12;fontStyle=0;aspect=fixed;shape=mxgraph.aws4.resourceIcon;resIcon=mxgraph.aws4.parameter_store;" vertex="1" parent="1"><mxGeometry x="1500" y="1025" width="50" height="50" as="geometry"/></mxCell><mxCell id="34" value="ExpeDatServerParameterName" style="outlineConnect=0;fontColor=#B3B3B3;gradientColor=#F34482;gradientDirection=north;fillColor=#BC1356;strokeColor=#ffffff;dashed=0;verticalLabelPosition=bottom;verticalAlign=top;align=center;html=1;fontSize=12;fontStyle=0;aspect=fixed;shape=mxgraph.aws4.resourceIcon;resIcon=mxgraph.aws4.parameter_store;" vertex="1" parent="1"><mxGeometry x="1500" y="1125" width="50" height="50" as="geometry"/></mxCell><mxCell id="35" value="ExpeDatPortParameterName" style="outlineConnect=0;fontColor=#B3B3B3;gradientColor=#F34482;gradientDirection=north;fillColor=#BC1356;strokeColor=#ffffff;dashed=0;verticalLabelPosition=bottom;verticalAlign=top;align=center;html=1;fontSize=12;fontStyle=0;aspect=fixed;shape=mxgraph.aws4.resourceIcon;resIcon=mxgraph.aws4.parameter_store;" vertex="1" parent="1"><mxGeometry x="1500" y="1225" width="50" height="50" as="geometry"/></mxCell><mxCell id="36" value="SSMActivationParameter" style="outlineConnect=0;fontColor=#B3B3B3;gradientColor=#F34482;gradientDirection=north;fillColor=#BC1356;strokeColor=#ffffff;dashed=0;verticalLabelPosition=bottom;verticalAlign=top;align=center;html=1;fontSize=12;fontStyle=0;aspect=fixed;shape=mxgraph.aws4.resourceIcon;resIcon=mxgraph.aws4.parameter_store;" vertex="1" parent="1"><mxGeometry x="1000" y="1300" width="50" height="50" as="geometry"/></mxCell><mxCell id="37" value="LogParserParameter" style="outlineConnect=0;fontColor=#B3B3B3;gradientColor=#F34482;gradientDirection=north;fillColor=#BC1356;strokeColor=#ffffff;dashed=0;verticalLabelPosition=bottom;verticalAlign=top;align=center;html=1;fontSize=12;fontStyle=0;aspect=fixed;shape=mxgraph.aws4.resourceIcon;resIcon=mxgraph.aws4.parameter_store;" vertex="1" parent="1"><mxGeometry y="2200" width="50" height="50" as="geometry"/></mxCell><mxCell id="38" value="HashGeneratorParameter" style="outlineConnect=0;fontColor=#B3B3B3;gradientColor=#F34482;gradientDirection=north;fillColor=#BC1356;strokeColor=#ffffff;dashed=0;verticalLabelPosition=bottom;verticalAlign=top;align=center;html=1;fontSize=12;fontStyle=0;aspect=fixed;shape=mxgraph.aws4.resourceIcon;resIcon=mxgraph.aws4.parameter_store;" vertex="1" parent="1"><mxGeometry y="2350" width="50" height="50" as="geometry"/></mxCell><mxCell id="39" value="DynamoDBTableTheater" style="outlineConnect=0;fontColor=#B3B3B3;gradientColor=#4D72F3;gradientDirection=north;fillColor=#3334B9;strokeColor=#ffffff;dashed=0;verticalLabelPosition=bottom;verticalAlign=top;align=center;html=1;fontSize=12;fontStyle=0;aspect=fixed;shape=mxgraph.aws4.resourceIcon;resIcon=mxgraph.aws4.dynamodb;" vertex="1" parent="1"><mxGeometry x="1250" y="900" width="50" height="50" as="geometry"/></mxCell><mxCell id="40" value="DynamoDBTableStatus" style="outlineConnect=0;fontColor=#B3B3B3;gradientColor=#4D72F3;gradientDirection=north;fillColor=#3334B9;strokeColor=#ffffff;dashed=0;verticalLabelPosition=bottom;verticalAlign=top;align=center;html=1;fontSize=12;fontStyle=0;aspect=fixed;shape=mxgraph.aws4.resourceIcon;resIcon=mxgraph.aws4.dynamodb;" vertex="1" parent="1"><mxGeometry x="1500" y="1325" width="50" height="50" as="geometry"/></mxCell><mxCell id="41" value="DashboardFunction" style="outlineConnect=0;fontColor=#B3B3B3;gradientColor=#F78E04;gradientDirection=north;fillColor=#D05C17;strokeColor=#ffffff;dashed=0;verticalLabelPosition=bottom;verticalAlign=top;align=center;html=1;fontSize=12;fontStyle=0;aspect=fixed;shape=mxgraph.aws4.resourceIcon;resIcon=mxgraph.aws4.lambda;" vertex="1" parent="1"><mxGeometry x="250" y="1525" width="50" height="50" as="geometry"/></mxCell><mxCell id="42" value="DashboardFunctionRole" style="outlineConnect=0;fontColor=#B3B3B3;gradientColor=#F54749;gradientDirection=north;fillColor=#C7131F;strokeColor=#ffffff;dashed=0;verticalLabelPosition=bottom;verticalAlign=top;align=center;html=1;fontSize=12;fontStyle=0;aspect=fixed;shape=mxgraph.aws4.resourceIcon;resIcon=mxgraph.aws4.role;" vertex="1" parent="1"><mxGeometry x="500" y="1850" width="50" height="50" as="geometry"/></mxCell><mxCell id="43" value="CloudwatchDashboard" style="outlineConnect=0;fontColor=#B3B3B3;gradientColor=#F34482;gradientDirection=north;fillColor=#BC1356;strokeColor=#ffffff;dashed=0;verticalLabelPosition=bottom;verticalAlign=top;align=center;html=1;fontSize=12;fontStyle=0;aspect=fixed;shape=mxgraph.aws4.resourceIcon;resIcon=mxgraph.aws4.cloudwatch;" vertex="1" parent="1"><mxGeometry y="950" width="50" height="50" as="geometry"/></mxCell><mxCell id="44" value="StateMachineRole" style="outlineConnect=0;fontColor=#B3B3B3;gradientColor=#F54749;gradientDirection=north;fillColor=#C7131F;strokeColor=#ffffff;dashed=0;verticalLabelPosition=bottom;verticalAlign=top;align=center;html=1;fontSize=12;fontStyle=0;aspect=fixed;shape=mxgraph.aws4.resourceIcon;resIcon=mxgraph.aws4.role;" vertex="1" parent="1"><mxGeometry x="500" y="1400" width="50" height="50" as="geometry"/></mxCell><mxCell id="45" value="StateMachineExpressSync" style="outlineConnect=0;fontColor=#B3B3B3;gradientColor=#F34482;gradientDirection=north;fillColor=#BC1356;strokeColor=#ffffff;dashed=0;verticalLabelPosition=bottom;verticalAlign=top;align=center;html=1;fontSize=12;fontStyle=0;aspect=fixed;shape=mxgraph.aws4.resourceIcon;resIcon=mxgraph.aws4.step_functions;" vertex="1" parent="1"><mxGeometry x="500" y="1650" width="50" height="50" as="geometry"/></mxCell><mxCell id="46" value="StateMachineLogGroup" style="outlineConnect=0;fontColor=#B3B3B3;gradientColor=#F34482;gradientDirection=north;fillColor=#BC1356;strokeColor=#ffffff;dashed=0;verticalLabelPosition=bottom;verticalAlign=top;align=center;html=1;fontSize=12;fontStyle=0;aspect=fixed;shape=mxgraph.aws4.resourceIcon;resIcon=mxgraph.aws4.cloudwatch;" vertex="1" parent="1"><mxGeometry x="750" y="1825" width="50" height="50" as="geometry"/></mxCell><mxCell id="47" value="StateMachineApi" style="outlineConnect=0;fontColor=#B3B3B3;gradientColor=#945DF2;gradientDirection=north;fillColor=#5A30B5;strokeColor=#ffffff;dashed=0;verticalLabelPosition=bottom;verticalAlign=top;align=center;html=1;fontSize=12;fontStyle=0;aspect=fixed;shape=mxgraph.aws4.resourceIcon;resIcon=mxgraph.aws4.api_gateway;" vertex="1" parent="1"><mxGeometry y="1375" width="50" height="50" as="geometry"/></mxCell><mxCell id="48" value="StateMachineApiRole" style="outlineConnect=0;fontColor=#B3B3B3;gradientColor=#F54749;gradientDirection=north;fillColor=#C7131F;strokeColor=#ffffff;dashed=0;verticalLabelPosition=bottom;verticalAlign=top;align=center;html=1;fontSize=12;fontStyle=0;aspect=fixed;shape=mxgraph.aws4.resourceIcon;resIcon=mxgraph.aws4.role;" vertex="1" parent="1"><mxGeometry x="250" y="1375" width="50" height="50" as="geometry"/></mxCell><mxCell id="57" value="lambda  017000801446&#xA;19" style="outlineConnect=0;fontColor=#B3B3B3;gradientColor=#aaaaaa;gradientDirection=north;fillColor=#aaaaaa;strokeColor=#ffffff;dashed=0;verticalLabelPosition=bottom;verticalAlign=top;align=center;html=1;fontSize=12;fontStyle=0;aspect=fixed;shape=mxgraph.aws4.resourceIcon;resIcon=mxgraph.aws4.lambda;" vertex="1" parent="1"><mxGeometry x="1250" y="662.5" width="50" height="50" as="geometry"/></mxCell><mxCell id="61" value="s3  &#xA;mum-pr-dcinema-deployments-s3/*" style="outlineConnect=0;fontColor=#B3B3B3;gradientColor=#aaaaaa;gradientDirection=north;fillColor=#aaaaaa;strokeColor=#ffffff;dashed=0;verticalLabelPosition=bottom;verticalAlign=top;align=center;html=1;fontSize=12;fontStyle=0;aspect=fixed;shape=mxgraph.aws4.resourceIcon;resIcon=mxgraph.aws4.s3;" vertex="1" parent="1"><mxGeometry x="1500" y="562.5" width="50" height="50" as="geometry"/></mxCell><mxCell id="62" value="s3  &#xA;mum-pr-dcinema-deployments-s3" style="outlineConnect=0;fontColor=#B3B3B3;gradientColor=#aaaaaa;gradientDirection=north;fillColor=#aaaaaa;strokeColor=#ffffff;dashed=0;verticalLabelPosition=bottom;verticalAlign=top;align=center;html=1;fontSize=12;fontStyle=0;aspect=fixed;shape=mxgraph.aws4.resourceIcon;resIcon=mxgraph.aws4.s3;" vertex="1" parent="1"><mxGeometry x="1500" y="437.5" width="50" height="50" as="geometry"/></mxCell><mxCell id="65" value="dynamodb  &#xA;table/${dynamodbtabletheater}*/*" style="outlineConnect=0;fontColor=#B3B3B3;gradientColor=#aaaaaa;gradientDirection=north;fillColor=#aaaaaa;strokeColor=#ffffff;dashed=0;verticalLabelPosition=bottom;verticalAlign=top;align=center;html=1;fontSize=12;fontStyle=0;aspect=fixed;shape=mxgraph.aws4.resourceIcon;resIcon=mxgraph.aws4.dynamodb;" vertex="1" parent="1"><mxGeometry x="1500" y="825" width="50" height="50" as="geometry"/></mxCell><mxCell id="68" value="logs * *&#xA;*" style="outlineConnect=0;fontColor=#B3B3B3;gradientColor=#aaaaaa;gradientDirection=north;fillColor=#aaaaaa;strokeColor=#ffffff;dashed=0;verticalLabelPosition=bottom;verticalAlign=top;align=center;html=1;fontSize=12;fontStyle=0;aspect=fixed;shape=mxgraph.aws4.resourceIcon;resIcon=mxgraph.aws4.cloudwatch;" vertex="1" parent="1"><mxGeometry x="1500" y="925" width="50" height="50" as="geometry"/></mxCell><mxCell id="lambda  017000801446&#xA;19|CustomAuthorizer" value="Layers" style="edgeStyle=orthogonalEdgeStyle;rounded=1;orthogonalLoop=1;jettySize=auto;html=1;labelBackgroundColor=none;fontColor=#EA6B66;noEdgeStyle=1;orthogonal=1;" edge="1" parent="1" source="3" target="57"><mxGeometry relative="1" as="geometry"><Array as="points"><mxPoint x="312" y="1015"/><mxPoint x="400" y="450"/><mxPoint x="650" y="450"/><mxPoint x="650" y="625"/><mxPoint x="900" y="625"/><mxPoint x="900" y="600"/><mxPoint x="1150" y="600"/><mxPoint x="1234" y="698.6111111111111"/></Array></mxGeometry></mxCell><mxCell id="CustomAuthorizerRole|CustomAuthorizer" value="Role" style="edgeStyle=orthogonalEdgeStyle;rounded=1;orthogonalLoop=1;jettySize=auto;html=1;labelBackgroundColor=none;fontColor=#EA6B66;noEdgeStyle=1;orthogonal=1;" edge="1" parent="1" source="3" target="4"><mxGeometry relative="1" as="geometry"><Array as="points"><mxPoint x="312" y="1035"/><mxPoint x="488" y="1525"/></Array></mxGeometry></mxCell><mxCell id="ApiGatewaySecretKeyResource|CustomAuthorizerRole" value="PolicyDocument" style="edgeStyle=orthogonalEdgeStyle;rounded=1;orthogonalLoop=1;jettySize=auto;html=1;labelBackgroundColor=none;fontColor=#EA6B66;noEdgeStyle=1;orthogonal=1;" edge="1" parent="1" source="4" target="2"><mxGeometry relative="1" as="geometry"><Array as="points"><mxPoint x="562" y="1525"/><mxPoint x="738" y="1450"/></Array></mxGeometry></mxCell><mxCell id="CustomAuthorizer|ApiGatewayEndpoint" value="FunctionArn" style="edgeStyle=orthogonalEdgeStyle;rounded=1;orthogonalLoop=1;jettySize=auto;html=1;labelBackgroundColor=none;fontColor=#EA6B66;noEdgeStyle=1;orthogonal=1;" edge="1" parent="1" source="5" target="3"><mxGeometry relative="1" as="geometry"><Array as="points"><mxPoint x="62" y="890"/><mxPoint x="238" y="1015"/></Array></mxGeometry></mxCell><mxCell id="lambda  017000801446&#xA;19|ExpeDatSSMRunDocumet" value="Layers" style="edgeStyle=orthogonalEdgeStyle;rounded=1;orthogonalLoop=1;jettySize=auto;html=1;labelBackgroundColor=none;fontColor=#EA6B66;noEdgeStyle=1;orthogonal=1;" edge="1" parent="1" source="6" target="57"><mxGeometry relative="1" as="geometry"><Array as="points"><mxPoint x="314" y="809.375"/><mxPoint x="400" y="350"/><mxPoint x="650" y="350"/><mxPoint x="650" y="375"/><mxPoint x="900" y="375"/><mxPoint x="900" y="350"/><mxPoint x="1150" y="350"/><mxPoint x="1236" y="670.8333333333334"/></Array></mxGeometry></mxCell><mxCell id="DynamoDBTableTheater|ExpeDatSSMRunDocumet" value="Variable" style="edgeStyle=orthogonalEdgeStyle;rounded=1;orthogonalLoop=1;jettySize=auto;html=1;labelBackgroundColor=none;fontColor=#EA6B66;noEdgeStyle=1;orthogonal=1;" edge="1" parent="1" source="6" target="39"><mxGeometry relative="1" as="geometry"><Array as="points"><mxPoint x="318" y="821.875"/><mxPoint x="400" y="750"/><mxPoint x="650" y="750"/><mxPoint x="650" y="775"/><mxPoint x="900" y="775"/><mxPoint x="900" y="750"/><mxPoint x="1150" y="750"/><mxPoint x="1234" y="910.4166666666666"/></Array></mxGeometry></mxCell><mxCell id="SSMDocument|ExpeDatSSMRunDocumet" value="Variable" style="edgeStyle=orthogonalEdgeStyle;rounded=1;orthogonalLoop=1;jettySize=auto;html=1;labelBackgroundColor=none;fontColor=#EA6B66;noEdgeStyle=1;orthogonal=1;" edge="1" parent="1" source="6" target="29"><mxGeometry relative="1" as="geometry"><Array as="points"><mxPoint x="312" y="846.875"/><mxPoint x="400" y="1750"/><mxPoint x="650" y="1750"/><mxPoint x="650" y="1725"/><mxPoint x="900" y="1725"/><mxPoint x="900" y="2000"/><mxPoint x="1150" y="2000"/><mxPoint x="1236" y="1607.5"/></Array></mxGeometry></mxCell><mxCell id="SNSNotificationTopic|ExpeDatSSMRunDocumet" value="Variable" style="edgeStyle=orthogonalEdgeStyle;rounded=1;orthogonalLoop=1;jettySize=auto;html=1;labelBackgroundColor=none;fontColor=#EA6B66;noEdgeStyle=1;orthogonal=1;" edge="1" parent="1" source="6" target="27"><mxGeometry relative="1" as="geometry"><Array as="points"><mxPoint x="314" y="840.625"/><mxPoint x="400" y="1150"/><mxPoint x="650" y="1150"/><mxPoint x="736" y="1345"/></Array></mxGeometry></mxCell><mxCell id="ServerHashGenerator|ExpeDatSSMRunDocumet" value="Variable" style="edgeStyle=orthogonalEdgeStyle;rounded=1;orthogonalLoop=1;jettySize=auto;html=1;labelBackgroundColor=none;fontColor=#EA6B66;noEdgeStyle=1;orthogonal=1;" edge="1" parent="1" source="6" target="31"><mxGeometry relative="1" as="geometry"><Array as="points"><mxPoint x="316" y="815.625"/><mxPoint x="488" y="575"/></Array></mxGeometry></mxCell><mxCell id="ApiGatewayEndpoint|ExpeDatSSMRunDocumet" value="Invoke&#xA;RestApiId" style="edgeStyle=orthogonalEdgeStyle;rounded=1;orthogonalLoop=1;jettySize=auto;html=1;fillColor=#1ba1e2;strokeColor=#006EAF;labelBackgroundColor=none;fontColor=#7EA6E0;noEdgeStyle=1;orthogonal=1;" edge="1" parent="1" source="5" target="6"><mxGeometry relative="1" as="geometry"><Array as="points"><mxPoint x="64" y="870"/><mxPoint x="238" y="815"/></Array></mxGeometry></mxCell><mxCell id="ApiGatewayS3Verify|ExpeDatSSMRunDocumet" value="Variable" style="edgeStyle=orthogonalEdgeStyle;rounded=1;orthogonalLoop=1;jettySize=auto;html=1;labelBackgroundColor=none;fontColor=#EA6B66;noEdgeStyle=1;orthogonal=1;" edge="1" parent="1" source="6" target="13"><mxGeometry relative="1" as="geometry"><Array as="points"><mxPoint x="312" y="803.125"/><mxPoint x="488" y="275"/></Array></mxGeometry></mxCell><mxCell id="ExpeDatSSMRunDocumetRole|ExpeDatSSMRunDocumet" value="Role" style="edgeStyle=orthogonalEdgeStyle;rounded=1;orthogonalLoop=1;jettySize=auto;html=1;labelBackgroundColor=none;fontColor=#EA6B66;noEdgeStyle=1;orthogonal=1;" edge="1" parent="1" source="6" target="23"><mxGeometry relative="1" as="geometry"><Array as="points"><mxPoint x="318" y="828.125"/><mxPoint x="488" y="875"/></Array></mxGeometry></mxCell><mxCell id="SSMSNSPublishRole|ExpeDatSSMRunDocumet" value="Variable" style="edgeStyle=orthogonalEdgeStyle;rounded=1;orthogonalLoop=1;jettySize=auto;html=1;labelBackgroundColor=none;fontColor=#EA6B66;noEdgeStyle=1;orthogonal=1;" edge="1" parent="1" source="6" target="28"><mxGeometry relative="1" as="geometry"><Array as="points"><mxPoint x="316" y="834.375"/><mxPoint x="400" y="1000"/><mxPoint x="650" y="1000"/><mxPoint x="650" y="1125"/><mxPoint x="900" y="1125"/><mxPoint x="900" y="1200"/><mxPoint x="1150" y="1200"/><mxPoint x="1236" y="1070"/></Array></mxGeometry></mxCell><mxCell id="lambda  017000801446&#xA;19|ExpeDatCancelRunDocument" value="Layers" style="edgeStyle=orthogonalEdgeStyle;rounded=1;orthogonalLoop=1;jettySize=auto;html=1;labelBackgroundColor=none;fontColor=#EA6B66;noEdgeStyle=1;orthogonal=1;" edge="1" parent="1" source="7" target="57"><mxGeometry relative="1" as="geometry"><Array as="points"><mxPoint x="312" y="580.4166666666666"/><mxPoint x="400" y="200"/><mxPoint x="650" y="200"/><mxPoint x="650" y="200"/><mxPoint x="900" y="200"/><mxPoint x="900" y="300"/><mxPoint x="1150" y="300"/><mxPoint x="1238" y="665.2777777777778"/></Array></mxGeometry></mxCell><mxCell id="DynamoDBTableTheater|ExpeDatCancelRunDocument" value="Variable" style="edgeStyle=orthogonalEdgeStyle;rounded=1;orthogonalLoop=1;jettySize=auto;html=1;labelBackgroundColor=none;fontColor=#EA6B66;noEdgeStyle=1;orthogonal=1;" edge="1" parent="1" source="7" target="39"><mxGeometry relative="1" as="geometry"><Array as="points"><mxPoint x="314" y="593.75"/><mxPoint x="400" y="500"/><mxPoint x="650" y="500"/><mxPoint x="650" y="675"/><mxPoint x="900" y="675"/><mxPoint x="900" y="650"/><mxPoint x="1150" y="650"/><mxPoint x="1238" y="902.0833333333334"/></Array></mxGeometry></mxCell><mxCell id="ApiGatewayEndpoint|ExpeDatCancelRunDocument" value="Invoke&#xA;RestApiId" style="edgeStyle=orthogonalEdgeStyle;rounded=1;orthogonalLoop=1;jettySize=auto;html=1;fillColor=#1ba1e2;strokeColor=#006EAF;labelBackgroundColor=none;fontColor=#7EA6E0;noEdgeStyle=1;orthogonal=1;" edge="1" parent="1" source="5" target="7"><mxGeometry relative="1" as="geometry"><Array as="points"><mxPoint x="62" y="860"/><mxPoint x="238" y="593.75"/></Array></mxGeometry></mxCell><mxCell id="ExpeDatCancelRunDocumentRole|ExpeDatCancelRunDocument" value="Role" style="edgeStyle=orthogonalEdgeStyle;rounded=1;orthogonalLoop=1;jettySize=auto;html=1;labelBackgroundColor=none;fontColor=#EA6B66;noEdgeStyle=1;orthogonal=1;" edge="1" parent="1" source="7" target="8"><mxGeometry relative="1" as="geometry"><Array as="points"><mxPoint x="312" y="607.0833333333334"/><mxPoint x="488" y="675"/></Array></mxGeometry></mxCell><mxCell id="DynamoDBTableTheater|ExpeDatCancelRunDocumentRole" value="PolicyDocument" style="edgeStyle=orthogonalEdgeStyle;rounded=1;orthogonalLoop=1;jettySize=auto;html=1;labelBackgroundColor=none;fontColor=#EA6B66;noEdgeStyle=1;orthogonal=1;" edge="1" parent="1" source="8" target="39"><mxGeometry relative="1" as="geometry"><Array as="points"><mxPoint x="562" y="675"/><mxPoint x="650" y="725"/><mxPoint x="900" y="725"/><mxPoint x="900" y="700"/><mxPoint x="1150" y="700"/><mxPoint x="1236" y="906.25"/></Array></mxGeometry></mxCell><mxCell id="lambda  017000801446&#xA;19|GeneratedPresignedURL" value="Layers" style="edgeStyle=orthogonalEdgeStyle;rounded=1;orthogonalLoop=1;jettySize=auto;html=1;labelBackgroundColor=none;fontColor=#EA6B66;noEdgeStyle=1;orthogonal=1;" edge="1" parent="1" source="9" target="57"><mxGeometry relative="1" as="geometry"><Array as="points"><mxPoint x="814" y="450"/><mxPoint x="900" y="450"/><mxPoint x="1150" y="450"/><mxPoint x="1232" y="681.9444444444445"/></Array></mxGeometry></mxCell><mxCell id="DynamoDBTableTheater|GeneratedPresignedURL" value="Variable" style="edgeStyle=orthogonalEdgeStyle;rounded=1;orthogonalLoop=1;jettySize=auto;html=1;labelBackgroundColor=none;fontColor=#EA6B66;noEdgeStyle=1;orthogonal=1;" edge="1" parent="1" source="9" target="39"><mxGeometry relative="1" as="geometry"><Array as="points"><mxPoint x="812" y="463.3333333333333"/><mxPoint x="900" y="800"/><mxPoint x="1150" y="800"/><mxPoint x="1232" y="914.5833333333333"/></Array></mxGeometry></mxCell><mxCell id="ApiGatewayS3Verify|GeneratedPresignedURL" value="Invoke&#xA;RestApiId" style="edgeStyle=orthogonalEdgeStyle;rounded=1;orthogonalLoop=1;jettySize=auto;html=1;fillColor=#1ba1e2;strokeColor=#006EAF;labelBackgroundColor=none;fontColor=#7EA6E0;noEdgeStyle=1;orthogonal=1;" edge="1" parent="1" source="13" target="9"><mxGeometry relative="1" as="geometry"><Array as="points"><mxPoint x="562" y="285"/><mxPoint x="738" y="450"/></Array></mxGeometry></mxCell><mxCell id="GeneratedPresignedURLRole|GeneratedPresignedURL" value="Role" style="edgeStyle=orthogonalEdgeStyle;rounded=1;orthogonalLoop=1;jettySize=auto;html=1;labelBackgroundColor=none;fontColor=#EA6B66;noEdgeStyle=1;orthogonal=1;" edge="1" parent="1" source="9" target="10"><mxGeometry relative="1" as="geometry"><Array as="points"><mxPoint x="812" y="436.6666666666667"/><mxPoint x="988" y="75"/></Array></mxGeometry></mxCell><mxCell id="s3  &#xA;mum-pr-dcinema-deployments-s3/*|GeneratedPresignedURLRole" value="PolicyDocument" style="edgeStyle=orthogonalEdgeStyle;rounded=1;orthogonalLoop=1;jettySize=auto;html=1;labelBackgroundColor=none;fontColor=#EA6B66;noEdgeStyle=1;orthogonal=1;" edge="1" parent="1" source="10" target="61"><mxGeometry relative="1" as="geometry"><Array as="points"><mxPoint x="1062" y="85"/><mxPoint x="1150" y="462.5"/><mxPoint x="1400" y="462.5"/><mxPoint x="1488" y="572.5"/></Array></mxGeometry></mxCell><mxCell id="s3  &#xA;mum-pr-dcinema-deployments-s3|GeneratedPresignedURLRole" value="PolicyDocument" style="edgeStyle=orthogonalEdgeStyle;rounded=1;orthogonalLoop=1;jettySize=auto;html=1;labelBackgroundColor=none;fontColor=#EA6B66;noEdgeStyle=1;orthogonal=1;" edge="1" parent="1" source="10" target="62"><mxGeometry relative="1" as="geometry"><Array as="points"><mxPoint x="1062" y="65"/><mxPoint x="1150" y="268.75"/><mxPoint x="1400" y="268.75"/><mxPoint x="1488" y="447.5"/></Array></mxGeometry></mxCell><mxCell id="lambda  017000801446&#xA;19|ValidateTransfer" value="Layers" style="edgeStyle=orthogonalEdgeStyle;rounded=1;orthogonalLoop=1;jettySize=auto;html=1;labelBackgroundColor=none;fontColor=#EA6B66;noEdgeStyle=1;orthogonal=1;" edge="1" parent="1" source="11" target="57"><mxGeometry relative="1" as="geometry"><Array as="points"><mxPoint x="812" y="310"/><mxPoint x="900" y="400"/><mxPoint x="1150" y="400"/><mxPoint x="1234" y="676.3888888888889"/></Array></mxGeometry></mxCell><mxCell id="ApiGatewayS3Verify|ValidateTransfer" value="Invoke&#xA;RestApiId" style="edgeStyle=orthogonalEdgeStyle;rounded=1;orthogonalLoop=1;jettySize=auto;html=1;fillColor=#1ba1e2;strokeColor=#006EAF;labelBackgroundColor=none;fontColor=#7EA6E0;noEdgeStyle=1;orthogonal=1;" edge="1" parent="1" source="13" target="11"><mxGeometry relative="1" as="geometry"><Array as="points"><mxPoint x="562" y="265"/><mxPoint x="738" y="300"/></Array></mxGeometry></mxCell><mxCell id="ValidateTransferRole|ValidateTransfer" value="Role" style="edgeStyle=orthogonalEdgeStyle;rounded=1;orthogonalLoop=1;jettySize=auto;html=1;labelBackgroundColor=none;fontColor=#EA6B66;noEdgeStyle=1;orthogonal=1;" edge="1" parent="1" source="11" target="12"><mxGeometry relative="1" as="geometry"><Array as="points"><mxPoint x="812" y="290"/><mxPoint x="988" y="175"/></Array></mxGeometry></mxCell><mxCell id="s3  &#xA;mum-pr-dcinema-deployments-s3|ValidateTransferRole" value="PolicyDocument" style="edgeStyle=orthogonalEdgeStyle;rounded=1;orthogonalLoop=1;jettySize=auto;html=1;labelBackgroundColor=none;fontColor=#EA6B66;noEdgeStyle=1;orthogonal=1;" edge="1" parent="1" source="12" target="62"><mxGeometry relative="1" as="geometry"><Array as="points"><mxPoint x="1062" y="165"/><mxPoint x="1150" y="512.5"/><mxPoint x="1400" y="512.5"/><mxPoint x="1486" y="467.5"/></Array></mxGeometry></mxCell><mxCell id="s3  &#xA;mum-pr-dcinema-deployments-s3/*|ValidateTransferRole" value="PolicyDocument" style="edgeStyle=orthogonalEdgeStyle;rounded=1;orthogonalLoop=1;jettySize=auto;html=1;labelBackgroundColor=none;fontColor=#EA6B66;noEdgeStyle=1;orthogonal=1;" edge="1" parent="1" source="12" target="61"><mxGeometry relative="1" as="geometry"><Array as="points"><mxPoint x="1062" y="185"/><mxPoint x="1150" y="562.5"/><mxPoint x="1400" y="562.5"/><mxPoint x="1486" y="582.5"/></Array></mxGeometry></mxCell><mxCell id="lambda  017000801446&#xA;19|ExpeDatSSMInvocationQuery" value="Layers" style="edgeStyle=orthogonalEdgeStyle;rounded=1;orthogonalLoop=1;jettySize=auto;html=1;labelBackgroundColor=none;fontColor=#EA6B66;noEdgeStyle=1;orthogonal=1;" edge="1" parent="1" source="14" target="57"><mxGeometry relative="1" as="geometry"><Array as="points"><mxPoint x="312" y="911.6666666666666"/><mxPoint x="400" y="400"/><mxPoint x="650" y="400"/><mxPoint x="650" y="525"/><mxPoint x="900" y="525"/><mxPoint x="900" y="500"/><mxPoint x="1150" y="500"/><mxPoint x="1230" y="687.5"/></Array></mxGeometry></mxCell><mxCell id="DynamoDBTableTheater|ExpeDatSSMInvocationQuery" value="Variable" style="edgeStyle=orthogonalEdgeStyle;rounded=1;orthogonalLoop=1;jettySize=auto;html=1;labelBackgroundColor=none;fontColor=#EA6B66;noEdgeStyle=1;orthogonal=1;" edge="1" parent="1" source="14" target="39"><mxGeometry relative="1" as="geometry"><Array as="points"><mxPoint x="314" y="925"/><mxPoint x="400" y="950"/><mxPoint x="650" y="950"/><mxPoint x="650" y="925"/><mxPoint x="900" y="925"/><mxPoint x="900" y="900"/><mxPoint x="1150" y="900"/><mxPoint x="1228" y="922.9166666666665"/></Array></mxGeometry></mxCell><mxCell id="ApiGatewayEndpoint|ExpeDatSSMInvocationQuery" value="Invoke&#xA;RestApiId" style="edgeStyle=orthogonalEdgeStyle;rounded=1;orthogonalLoop=1;jettySize=auto;html=1;fillColor=#1ba1e2;strokeColor=#006EAF;labelBackgroundColor=none;fontColor=#7EA6E0;noEdgeStyle=1;orthogonal=1;" edge="1" parent="1" source="5" target="14"><mxGeometry relative="1" as="geometry"><Array as="points"><mxPoint x="64" y="880"/><mxPoint x="238" y="915"/></Array></mxGeometry></mxCell><mxCell id="ExpeDatSSMInvocationQueryRole|ExpeDatSSMInvocationQuery" value="Role" style="edgeStyle=orthogonalEdgeStyle;rounded=1;orthogonalLoop=1;jettySize=auto;html=1;labelBackgroundColor=none;fontColor=#EA6B66;noEdgeStyle=1;orthogonal=1;" edge="1" parent="1" source="14" target="24"><mxGeometry relative="1" as="geometry"><Array as="points"><mxPoint x="312" y="938.3333333333334"/><mxPoint x="488" y="1075"/></Array></mxGeometry></mxCell><mxCell id="lambda  017000801446&#xA;19|SSMAgentActivation" value="Layers" style="edgeStyle=orthogonalEdgeStyle;rounded=1;orthogonalLoop=1;jettySize=auto;html=1;labelBackgroundColor=none;fontColor=#EA6B66;noEdgeStyle=1;orthogonal=1;" edge="1" parent="1" source="15" target="57"><mxGeometry relative="1" as="geometry"><Array as="points"><mxPoint x="812" y="1233.3333333333333"/><mxPoint x="900" y="1000"/><mxPoint x="1150" y="1000"/><mxPoint x="1236" y="704.1666666666666"/></Array></mxGeometry></mxCell><mxCell id="DynamoDBTableTheater|SSMAgentActivation" value="Variable" style="edgeStyle=orthogonalEdgeStyle;rounded=1;orthogonalLoop=1;jettySize=auto;html=1;labelBackgroundColor=none;fontColor=#EA6B66;noEdgeStyle=1;orthogonal=1;" edge="1" parent="1" source="15" target="39"><mxGeometry relative="1" as="geometry"><Array as="points"><mxPoint x="814" y="1240"/><mxPoint x="900" y="1250"/><mxPoint x="1150" y="1250"/><mxPoint x="1234" y="939.583333333333"/></Array></mxGeometry></mxCell><mxCell id="SSMAgentRole|SSMAgentActivation" value="Variable" style="edgeStyle=orthogonalEdgeStyle;rounded=1;orthogonalLoop=1;jettySize=auto;html=1;labelBackgroundColor=none;fontColor=#EA6B66;noEdgeStyle=1;orthogonal=1;" edge="1" parent="1" source="15" target="26"><mxGeometry relative="1" as="geometry"><Array as="points"><mxPoint x="812" y="1266.666666666667"/><mxPoint x="900" y="1800"/><mxPoint x="1150" y="1800"/><mxPoint x="1236" y="1367"/></Array></mxGeometry></mxCell><mxCell id="SSMActivationParameter|SSMAgentActivation" value="Variable" style="edgeStyle=orthogonalEdgeStyle;rounded=1;orthogonalLoop=1;jettySize=auto;html=1;labelBackgroundColor=none;fontColor=#EA6B66;noEdgeStyle=1;orthogonal=1;" edge="1" parent="1" source="15" target="36"><mxGeometry relative="1" as="geometry"><Array as="points"><mxPoint x="816" y="1246.6666666666667"/><mxPoint x="988" y="1325"/></Array></mxGeometry></mxCell><mxCell id="InstallDependency|SSMAgentActivation" value="Variable" style="edgeStyle=orthogonalEdgeStyle;rounded=1;orthogonalLoop=1;jettySize=auto;html=1;labelBackgroundColor=none;fontColor=#EA6B66;noEdgeStyle=1;orthogonal=1;" edge="1" parent="1" source="15" target="30"><mxGeometry relative="1" as="geometry"><Array as="points"><mxPoint x="816" y="1253.3333333333335"/><mxPoint x="988" y="1425"/></Array></mxGeometry></mxCell><mxCell id="SSMActivationApi|SSMAgentActivation" value="Invoke&#xA;RestApiId" style="edgeStyle=orthogonalEdgeStyle;rounded=1;orthogonalLoop=1;jettySize=auto;html=1;fillColor=#1ba1e2;strokeColor=#006EAF;labelBackgroundColor=none;fontColor=#7EA6E0;noEdgeStyle=1;orthogonal=1;" edge="1" parent="1" source="18" target="15"><mxGeometry relative="1" as="geometry"><Array as="points"><mxPoint x="562" y="1225"/><mxPoint x="738" y="1250"/></Array></mxGeometry></mxCell><mxCell id="SSMAgentActivationRole|SSMAgentActivation" value="Role" style="edgeStyle=orthogonalEdgeStyle;rounded=1;orthogonalLoop=1;jettySize=auto;html=1;labelBackgroundColor=none;fontColor=#EA6B66;noEdgeStyle=1;orthogonal=1;" edge="1" parent="1" source="15" target="25"><mxGeometry relative="1" as="geometry"><Array as="points"><mxPoint x="814" y="1260.0000000000002"/><mxPoint x="988" y="1575"/></Array></mxGeometry></mxCell><mxCell id="lambda  017000801446&#xA;19|SSMNotification" value="Layers" style="edgeStyle=orthogonalEdgeStyle;rounded=1;orthogonalLoop=1;jettySize=auto;html=1;labelBackgroundColor=none;fontColor=#EA6B66;noEdgeStyle=1;orthogonal=1;" edge="1" parent="1" source="16" target="57"><mxGeometry relative="1" as="geometry"><Array as="points"><mxPoint x="1062" y="1653.5714285714287"/><mxPoint x="1238" y="709.7222222222222"/></Array></mxGeometry></mxCell><mxCell id="CommonLambdaLayer|SSMNotification" value="Layers" style="edgeStyle=orthogonalEdgeStyle;rounded=1;orthogonalLoop=1;jettySize=auto;html=1;labelBackgroundColor=none;fontColor=#EA6B66;noEdgeStyle=1;orthogonal=1;" edge="1" parent="1" source="16" target="22"><mxGeometry relative="1" as="geometry"><Array as="points"><mxPoint x="1068" y="1675"/><mxPoint x="1238" y="1165"/></Array></mxGeometry></mxCell><mxCell id="SSMDocument|SSMNotification" value="Variable" style="edgeStyle=orthogonalEdgeStyle;rounded=1;orthogonalLoop=1;jettySize=auto;html=1;labelBackgroundColor=none;fontColor=#EA6B66;noEdgeStyle=1;orthogonal=1;" edge="1" parent="1" source="16" target="29"><mxGeometry relative="1" as="geometry"><Array as="points"><mxPoint x="1062" y="1696.4285714285713"/><mxPoint x="1238" y="1597.5"/></Array></mxGeometry></mxCell><mxCell id="DynamoDBTableTheater|SSMNotification" value="Variable" style="edgeStyle=orthogonalEdgeStyle;rounded=1;orthogonalLoop=1;jettySize=auto;html=1;labelBackgroundColor=none;fontColor=#EA6B66;noEdgeStyle=1;orthogonal=1;" edge="1" parent="1" source="16" target="39"><mxGeometry relative="1" as="geometry"><Array as="points"><mxPoint x="1064" y="1660.7142857142858"/><mxPoint x="1238" y="947.9166666666663"/></Array></mxGeometry></mxCell><mxCell id="DynamoDBTableStatus|SSMNotification" value="Variable" style="edgeStyle=orthogonalEdgeStyle;rounded=1;orthogonalLoop=1;jettySize=auto;html=1;labelBackgroundColor=none;fontColor=#EA6B66;noEdgeStyle=1;orthogonal=1;" edge="1" parent="1" source="16" target="40"><mxGeometry relative="1" as="geometry"><Array as="points"><mxPoint x="1064" y="1689.2857142857142"/><mxPoint x="1150" y="1450"/><mxPoint x="1400" y="1450"/><mxPoint x="1488" y="1360"/></Array></mxGeometry></mxCell><mxCell id="SNSNotificationTopic|SSMNotification" value="Invoke&#xA;Topic" style="edgeStyle=orthogonalEdgeStyle;rounded=1;orthogonalLoop=1;jettySize=auto;html=1;fillColor=#1ba1e2;strokeColor=#006EAF;labelBackgroundColor=none;fontColor=#7EA6E0;noEdgeStyle=1;orthogonal=1;" edge="1" parent="1" source="27" target="16"><mxGeometry relative="1" as="geometry"><Array as="points"><mxPoint x="812" y="1360"/><mxPoint x="988" y="1675"/></Array></mxGeometry></mxCell><mxCell id="SSMNotificationRole|SSMNotification" value="Role" style="edgeStyle=orthogonalEdgeStyle;rounded=1;orthogonalLoop=1;jettySize=auto;html=1;labelBackgroundColor=none;fontColor=#EA6B66;noEdgeStyle=1;orthogonal=1;" edge="1" parent="1" source="16" target="17"><mxGeometry relative="1" as="geometry"><Array as="points"><mxPoint x="1066" y="1682.142857142857"/><mxPoint x="1238" y="1275"/></Array></mxGeometry></mxCell><mxCell id="SSMSNSPublishRole|SSMNotification" value="Variable" style="edgeStyle=orthogonalEdgeStyle;rounded=1;orthogonalLoop=1;jettySize=auto;html=1;labelBackgroundColor=none;fontColor=#EA6B66;noEdgeStyle=1;orthogonal=1;" edge="1" parent="1" source="16" target="28"><mxGeometry relative="1" as="geometry"><Array as="points"><mxPoint x="1066" y="1667.857142857143"/><mxPoint x="1238" y="1090"/></Array></mxGeometry></mxCell><mxCell id="dynamodb  &#xA;table/${dynamodbtabletheater}*/*|SSMNotificationRole" value="PolicyDocument" style="edgeStyle=orthogonalEdgeStyle;rounded=1;orthogonalLoop=1;jettySize=auto;html=1;labelBackgroundColor=none;fontColor=#EA6B66;noEdgeStyle=1;orthogonal=1;" edge="1" parent="1" source="17" target="65"><mxGeometry relative="1" as="geometry"><Array as="points"><mxPoint x="1314" y="1280"/><mxPoint x="1488" y="850"/></Array></mxGeometry></mxCell><mxCell id="s3  &#xA;mum-pr-dcinema-deployments-s3|SSMNotificationRole" value="PolicyDocument" style="edgeStyle=orthogonalEdgeStyle;rounded=1;orthogonalLoop=1;jettySize=auto;html=1;labelBackgroundColor=none;fontColor=#EA6B66;noEdgeStyle=1;orthogonal=1;" edge="1" parent="1" source="17" target="62"><mxGeometry relative="1" as="geometry"><Array as="points"><mxPoint x="1312" y="1260"/><mxPoint x="1488" y="477.5"/></Array></mxGeometry></mxCell><mxCell id="s3  &#xA;mum-pr-dcinema-deployments-s3/*|SSMNotificationRole" value="PolicyDocument" style="edgeStyle=orthogonalEdgeStyle;rounded=1;orthogonalLoop=1;jettySize=auto;html=1;labelBackgroundColor=none;fontColor=#EA6B66;noEdgeStyle=1;orthogonal=1;" edge="1" parent="1" source="17" target="61"><mxGeometry relative="1" as="geometry"><Array as="points"><mxPoint x="1314" y="1270"/><mxPoint x="1488" y="602.5"/></Array></mxGeometry></mxCell><mxCell id="DynamoDBTableStatus|SSMNotificationRole" value="PolicyDocument" style="edgeStyle=orthogonalEdgeStyle;rounded=1;orthogonalLoop=1;jettySize=auto;html=1;labelBackgroundColor=none;fontColor=#EA6B66;noEdgeStyle=1;orthogonal=1;" edge="1" parent="1" source="17" target="40"><mxGeometry relative="1" as="geometry"><Array as="points"><mxPoint x="1312" y="1290"/><mxPoint x="1488" y="1340"/></Array></mxGeometry></mxCell><mxCell id="CommonLambdaLayer|SSMInstallScriptGenerator" value="Layers" style="edgeStyle=orthogonalEdgeStyle;rounded=1;orthogonalLoop=1;jettySize=auto;html=1;labelBackgroundColor=none;fontColor=#EA6B66;noEdgeStyle=1;orthogonal=1;" edge="1" parent="1" source="19" target="22"><mxGeometry relative="1" as="geometry"><Array as="points"><mxPoint x="312" y="1140"/><mxPoint x="400" y="1600"/><mxPoint x="650" y="1600"/><mxPoint x="650" y="1625"/><mxPoint x="900" y="1625"/><mxPoint x="900" y="1750"/><mxPoint x="1150" y="1750"/><mxPoint x="1238" y="1185"/></Array></mxGeometry></mxCell><mxCell id="lambda  017000801446&#xA;19|SSMInstallScriptGenerator" value="Layers" style="edgeStyle=orthogonalEdgeStyle;rounded=1;orthogonalLoop=1;jettySize=auto;html=1;labelBackgroundColor=none;fontColor=#EA6B66;noEdgeStyle=1;orthogonal=1;" edge="1" parent="1" source="19" target="57"><mxGeometry relative="1" as="geometry"><Array as="points"><mxPoint x="312" y="1110"/><mxPoint x="400" y="800"/><mxPoint x="650" y="800"/><mxPoint x="650" y="575"/><mxPoint x="900" y="575"/><mxPoint x="900" y="550"/><mxPoint x="1150" y="550"/><mxPoint x="1232" y="693.0555555555555"/></Array></mxGeometry></mxCell><mxCell id="SSMInstallScriptGeneratorApi|SSMInstallScriptGenerator" value="Invoke&#xA;RestApiId" style="edgeStyle=orthogonalEdgeStyle;rounded=1;orthogonalLoop=1;jettySize=auto;html=1;fillColor=#1ba1e2;strokeColor=#006EAF;labelBackgroundColor=none;fontColor=#7EA6E0;noEdgeStyle=1;orthogonal=1;" edge="1" parent="1" source="20" target="19"><mxGeometry relative="1" as="geometry"><Array as="points"><mxPoint x="62" y="1100"/><mxPoint x="238" y="1125"/></Array></mxGeometry></mxCell><mxCell id="SSMActivationApi|SSMInstallScriptGenerator" value="Variable" style="edgeStyle=orthogonalEdgeStyle;rounded=1;orthogonalLoop=1;jettySize=auto;html=1;labelBackgroundColor=none;fontColor=#EA6B66;noEdgeStyle=1;orthogonal=1;" edge="1" parent="1" source="19" target="18"><mxGeometry relative="1" as="geometry"><Array as="points"><mxPoint x="314" y="1120"/><mxPoint x="488" y="1225"/></Array></mxGeometry></mxCell><mxCell id="SSMInstallScriptGeneratorRole|SSMInstallScriptGenerator" value="Role" style="edgeStyle=orthogonalEdgeStyle;rounded=1;orthogonalLoop=1;jettySize=auto;html=1;labelBackgroundColor=none;fontColor=#EA6B66;noEdgeStyle=1;orthogonal=1;" edge="1" parent="1" source="19" target="21"><mxGeometry relative="1" as="geometry"><Array as="points"><mxPoint x="314" y="1130"/><mxPoint x="488" y="1325"/></Array></mxGeometry></mxCell><mxCell id="s3  &#xA;mum-pr-dcinema-deployments-s3|ExpeDatSSMRunDocumetRole" value="PolicyDocument" style="edgeStyle=orthogonalEdgeStyle;rounded=1;orthogonalLoop=1;jettySize=auto;html=1;labelBackgroundColor=none;fontColor=#EA6B66;noEdgeStyle=1;orthogonal=1;" edge="1" parent="1" source="23" target="62"><mxGeometry relative="1" as="geometry"><Array as="points"><mxPoint x="562" y="859"/><mxPoint x="650"/><mxPoint x="900"/><mxPoint x="900"/><mxPoint x="1150"/><mxPoint x="1150" y="412.5"/><mxPoint x="1400" y="412.5"/><mxPoint x="1486" y="457.5"/></Array></mxGeometry></mxCell><mxCell id="s3  &#xA;mum-pr-dcinema-deployments-s3/*|ExpeDatSSMRunDocumetRole" value="PolicyDocument" style="edgeStyle=orthogonalEdgeStyle;rounded=1;orthogonalLoop=1;jettySize=auto;html=1;labelBackgroundColor=none;fontColor=#EA6B66;noEdgeStyle=1;orthogonal=1;" edge="1" parent="1" source="23" target="61"><mxGeometry relative="1" as="geometry"><Array as="points"><mxPoint x="564" y="867"/><mxPoint x="650" y="825"/><mxPoint x="900" y="825"/><mxPoint x="900" y="250"/><mxPoint x="1150" y="250"/><mxPoint x="1150" y="612.5"/><mxPoint x="1400" y="612.5"/><mxPoint x="1486" y="592.5"/></Array></mxGeometry></mxCell><mxCell id="DynamoDBTableTheater|ExpeDatSSMRunDocumetRole" value="PolicyDocument" style="edgeStyle=orthogonalEdgeStyle;rounded=1;orthogonalLoop=1;jettySize=auto;html=1;labelBackgroundColor=none;fontColor=#EA6B66;noEdgeStyle=1;orthogonal=1;" edge="1" parent="1" source="23" target="39"><mxGeometry relative="1" as="geometry"><Array as="points"><mxPoint x="566" y="875"/><mxPoint x="650" y="875"/><mxPoint x="900" y="875"/><mxPoint x="900" y="850"/><mxPoint x="1150" y="850"/><mxPoint x="1230" y="918.7499999999999"/></Array></mxGeometry></mxCell><mxCell id="SSMSNSPublishRole|ExpeDatSSMRunDocumetRole" value="PolicyDocument" style="edgeStyle=orthogonalEdgeStyle;rounded=1;orthogonalLoop=1;jettySize=auto;html=1;labelBackgroundColor=none;fontColor=#EA6B66;noEdgeStyle=1;orthogonal=1;" edge="1" parent="1" source="23" target="28"><mxGeometry relative="1" as="geometry"><Array as="points"><mxPoint x="564" y="883"/><mxPoint x="650" y="1075"/><mxPoint x="900" y="1075"/><mxPoint x="900" y="1150"/><mxPoint x="1150" y="1150"/><mxPoint x="1238" y="1060"/></Array></mxGeometry></mxCell><mxCell id="SSMAgentRole|ExpeDatSSMRunDocumetRole" value="PolicyDocument" style="edgeStyle=orthogonalEdgeStyle;rounded=1;orthogonalLoop=1;jettySize=auto;html=1;labelBackgroundColor=none;fontColor=#EA6B66;noEdgeStyle=1;orthogonal=1;" edge="1" parent="1" source="23" target="26"><mxGeometry relative="1" as="geometry"><Array as="points"><mxPoint x="562" y="891"/><mxPoint x="650" y="1525"/><mxPoint x="900" y="1525"/><mxPoint x="900" y="1850"/><mxPoint x="1150" y="1850"/><mxPoint x="1234" y="1375"/></Array></mxGeometry></mxCell><mxCell id="SNSNotificationTopic|ExpeDatSSMInvocationQueryRole" value="PolicyDocument" style="edgeStyle=orthogonalEdgeStyle;rounded=1;orthogonalLoop=1;jettySize=auto;html=1;labelBackgroundColor=none;fontColor=#EA6B66;noEdgeStyle=1;orthogonal=1;" edge="1" parent="1" source="24" target="27"><mxGeometry relative="1" as="geometry"><Array as="points"><mxPoint x="562" y="1085"/><mxPoint x="738" y="1335"/></Array></mxGeometry></mxCell><mxCell id="DynamoDBTableTheater|ExpeDatSSMInvocationQueryRole" value="PolicyDocument" style="edgeStyle=orthogonalEdgeStyle;rounded=1;orthogonalLoop=1;jettySize=auto;html=1;labelBackgroundColor=none;fontColor=#EA6B66;noEdgeStyle=1;orthogonal=1;" edge="1" parent="1" source="24" target="39"><mxGeometry relative="1" as="geometry"><Array as="points"><mxPoint x="562" y="1065"/><mxPoint x="650" y="975"/><mxPoint x="900" y="975"/><mxPoint x="900" y="950"/><mxPoint x="1150" y="950"/><mxPoint x="1228" y="927.0833333333331"/></Array></mxGeometry></mxCell><mxCell id="DynamoDBTableTheater|SSMAgentActivationRole" value="PolicyDocument" style="edgeStyle=orthogonalEdgeStyle;rounded=1;orthogonalLoop=1;jettySize=auto;html=1;labelBackgroundColor=none;fontColor=#EA6B66;noEdgeStyle=1;orthogonal=1;" edge="1" parent="1" source="25" target="39"><mxGeometry relative="1" as="geometry"><Array as="points"><mxPoint x="1062" y="1565"/><mxPoint x="1236" y="943.7499999999997"/></Array></mxGeometry></mxCell><mxCell id="SSMAgentRole|SSMAgentActivationRole" value="PolicyDocument" style="edgeStyle=orthogonalEdgeStyle;rounded=1;orthogonalLoop=1;jettySize=auto;html=1;labelBackgroundColor=none;fontColor=#EA6B66;noEdgeStyle=1;orthogonal=1;" edge="1" parent="1" source="25" target="26"><mxGeometry relative="1" as="geometry"><Array as="points"><mxPoint x="1062" y="1585"/><mxPoint x="1238" y="1359"/></Array></mxGeometry></mxCell><mxCell id="logs * *&#xA;*|SSMAgentRole" value="PolicyDocument" style="edgeStyle=orthogonalEdgeStyle;rounded=1;orthogonalLoop=1;jettySize=auto;html=1;labelBackgroundColor=none;fontColor=#EA6B66;noEdgeStyle=1;orthogonal=1;" edge="1" parent="1" source="26" target="68"><mxGeometry relative="1" as="geometry"><Array as="points"><mxPoint x="1312" y="1375"/><mxPoint x="1488" y="950"/></Array></mxGeometry></mxCell><mxCell id="SNSNotificationTopic|SSMSNSPublishRole" value="PolicyDocument" style="edgeStyle=orthogonalEdgeStyle;rounded=1;orthogonalLoop=1;jettySize=auto;html=1;labelBackgroundColor=none;fontColor=#EA6B66;noEdgeStyle=1;orthogonal=1;" edge="1" parent="1" source="28" target="27"><mxGeometry relative="1" as="geometry"><Array as="points"><mxPoint x="1236" y="1080"/><mxPoint x="1150" y="1500"/><mxPoint x="900" y="1500"/><mxPoint x="812" y="1340"/></Array></mxGeometry></mxCell><mxCell id="ExpeDatUserParameterName|SSMDocument" value="default" style="edgeStyle=orthogonalEdgeStyle;rounded=1;orthogonalLoop=1;jettySize=auto;html=1;labelBackgroundColor=none;fontColor=#EA6B66;noEdgeStyle=1;orthogonal=1;" edge="1" parent="1" source="29" target="32"><mxGeometry relative="1" as="geometry"><Array as="points"><mxPoint x="1312" y="1627.5"/><mxPoint x="1488" y="1612.5"/></Array></mxGeometry></mxCell><mxCell id="ExpeDatPassParameterName|SSMDocument" value="default" style="edgeStyle=orthogonalEdgeStyle;rounded=1;orthogonalLoop=1;jettySize=auto;html=1;labelBackgroundColor=none;fontColor=#EA6B66;noEdgeStyle=1;orthogonal=1;" edge="1" parent="1" source="29" target="33"><mxGeometry relative="1" as="geometry"><Array as="points"><mxPoint x="1312" y="1597.5"/><mxPoint x="1488" y="1050"/></Array></mxGeometry></mxCell><mxCell id="ExpeDatServerParameterName|SSMDocument" value="default" style="edgeStyle=orthogonalEdgeStyle;rounded=1;orthogonalLoop=1;jettySize=auto;html=1;labelBackgroundColor=none;fontColor=#EA6B66;noEdgeStyle=1;orthogonal=1;" edge="1" parent="1" source="29" target="34"><mxGeometry relative="1" as="geometry"><Array as="points"><mxPoint x="1314" y="1607.5"/><mxPoint x="1488" y="1150"/></Array></mxGeometry></mxCell><mxCell id="ExpeDatPortParameterName|SSMDocument" value="default" style="edgeStyle=orthogonalEdgeStyle;rounded=1;orthogonalLoop=1;jettySize=auto;html=1;labelBackgroundColor=none;fontColor=#EA6B66;noEdgeStyle=1;orthogonal=1;" edge="1" parent="1" source="29" target="35"><mxGeometry relative="1" as="geometry"><Array as="points"><mxPoint x="1314" y="1617.5"/><mxPoint x="1488" y="1250"/></Array></mxGeometry></mxCell><mxCell id="SSMDocument|DashboardFunction" value="Variable" style="edgeStyle=orthogonalEdgeStyle;rounded=1;orthogonalLoop=1;jettySize=auto;html=1;labelBackgroundColor=none;fontColor=#EA6B66;noEdgeStyle=1;orthogonal=1;" edge="1" parent="1" source="41" target="29"><mxGeometry relative="1" as="geometry"><Array as="points"><mxPoint x="312" y="1540"/><mxPoint x="400" y="1800"/><mxPoint x="650" y="1800"/><mxPoint x="650" y="2050"/><mxPoint x="900" y="2050"/><mxPoint x="900" y="2050"/><mxPoint x="1150" y="2050"/><mxPoint x="1236" y="1617.5"/></Array></mxGeometry></mxCell><mxCell id="DashboardFunctionRole|DashboardFunction" value="Role" style="edgeStyle=orthogonalEdgeStyle;rounded=1;orthogonalLoop=1;jettySize=auto;html=1;labelBackgroundColor=none;fontColor=#EA6B66;noEdgeStyle=1;orthogonal=1;" edge="1" parent="1" source="41" target="42"><mxGeometry relative="1" as="geometry"><Array as="points"><mxPoint x="312" y="1560"/><mxPoint x="488" y="1875"/></Array></mxGeometry></mxCell><mxCell id="ExpeDatSSMRunDocumet|CloudwatchDashboard" value="DashboardBody" style="edgeStyle=orthogonalEdgeStyle;rounded=1;orthogonalLoop=1;jettySize=auto;html=1;labelBackgroundColor=none;fontColor=#EA6B66;noEdgeStyle=1;orthogonal=1;" edge="1" parent="1" source="43" target="6"><mxGeometry relative="1" as="geometry"><Array as="points"><mxPoint x="62" y="961.6666666666666"/><mxPoint x="238" y="835"/></Array></mxGeometry></mxCell><mxCell id="ExpeDatSSMInvocationQuery|CloudwatchDashboard" value="DashboardBody" style="edgeStyle=orthogonalEdgeStyle;rounded=1;orthogonalLoop=1;jettySize=auto;html=1;labelBackgroundColor=none;fontColor=#EA6B66;noEdgeStyle=1;orthogonal=1;" edge="1" parent="1" source="43" target="14"><mxGeometry relative="1" as="geometry"><Array as="points"><mxPoint x="64" y="975"/><mxPoint x="238" y="935"/></Array></mxGeometry></mxCell><mxCell id="DashboardFunction|CloudwatchDashboard" value="DashboardBody" style="edgeStyle=orthogonalEdgeStyle;rounded=1;orthogonalLoop=1;jettySize=auto;html=1;labelBackgroundColor=none;fontColor=#EA6B66;noEdgeStyle=1;orthogonal=1;" edge="1" parent="1" source="43" target="41"><mxGeometry relative="1" as="geometry"><Array as="points"><mxPoint x="62" y="988.3333333333334"/><mxPoint x="238" y="1550"/></Array></mxGeometry></mxCell><mxCell id="SNSNotificationTopic|StateMachineRole" value="PolicyDocument" style="edgeStyle=orthogonalEdgeStyle;rounded=1;orthogonalLoop=1;jettySize=auto;html=1;labelBackgroundColor=none;fontColor=#EA6B66;noEdgeStyle=1;orthogonal=1;" edge="1" parent="1" source="44" target="27"><mxGeometry relative="1" as="geometry"><Array as="points"><mxPoint x="564" y="1425"/><mxPoint x="736" y="1355"/></Array></mxGeometry></mxCell><mxCell id="DynamoDBTableTheater|StateMachineRole" value="PolicyDocument" style="edgeStyle=orthogonalEdgeStyle;rounded=1;orthogonalLoop=1;jettySize=auto;html=1;labelBackgroundColor=none;fontColor=#EA6B66;noEdgeStyle=1;orthogonal=1;" edge="1" parent="1" source="44" target="39"><mxGeometry relative="1" as="geometry"><Array as="points"><mxPoint x="562" y="1411.6666666666667"/><mxPoint x="650" y="1025"/><mxPoint x="900" y="1025"/><mxPoint x="900" y="1050"/><mxPoint x="1150" y="1050"/><mxPoint x="1230" y="931.2499999999998"/></Array></mxGeometry></mxCell><mxCell id="SSMAgentRole|StateMachineRole" value="PolicyDocument" style="edgeStyle=orthogonalEdgeStyle;rounded=1;orthogonalLoop=1;jettySize=auto;html=1;labelBackgroundColor=none;fontColor=#EA6B66;noEdgeStyle=1;orthogonal=1;" edge="1" parent="1" source="44" target="26"><mxGeometry relative="1" as="geometry"><Array as="points"><mxPoint x="562" y="1438.3333333333333"/><mxPoint x="650" y="1575"/><mxPoint x="900" y="1575"/><mxPoint x="900" y="1900"/><mxPoint x="1150" y="1900"/><mxPoint x="1236" y="1383"/></Array></mxGeometry></mxCell><mxCell id="DynamoDBTableTheater|StateMachineExpressSync" value="DynamoDBTableTheater&#xA;Statement" style="edgeStyle=orthogonalEdgeStyle;rounded=1;orthogonalLoop=1;jettySize=auto;html=1;labelBackgroundColor=none;fontColor=#EA6B66;noEdgeStyle=1;orthogonal=1;" edge="1" parent="1" source="45" target="39"><mxGeometry relative="1" as="geometry"><Array as="points"><mxPoint x="562" y="1659"/><mxPoint x="650" y="1175"/><mxPoint x="900" y="1175"/><mxPoint x="900" y="1100"/><mxPoint x="1150" y="1100"/><mxPoint x="1232" y="935.4166666666664"/></Array></mxGeometry></mxCell><mxCell id="SSMDocument|StateMachineExpressSync" value="SSMDocumentName" style="edgeStyle=orthogonalEdgeStyle;rounded=1;orthogonalLoop=1;jettySize=auto;html=1;labelBackgroundColor=none;fontColor=#EA6B66;noEdgeStyle=1;orthogonal=1;" edge="1" parent="1" source="45" target="29"><mxGeometry relative="1" as="geometry"><Array as="points"><mxPoint x="564" y="1683"/><mxPoint x="650" y="1775"/><mxPoint x="900" y="1775"/><mxPoint x="900" y="2100"/><mxPoint x="1150" y="2100"/><mxPoint x="1238" y="1627.5"/></Array></mxGeometry></mxCell><mxCell id="SNSNotificationTopic|StateMachineExpressSync" value="SSMNotificationArn&#xA;Statement" style="edgeStyle=orthogonalEdgeStyle;rounded=1;orthogonalLoop=1;jettySize=auto;html=1;labelBackgroundColor=none;fontColor=#EA6B66;noEdgeStyle=1;orthogonal=1;" edge="1" parent="1" source="45" target="27"><mxGeometry relative="1" as="geometry"><Array as="points"><mxPoint x="564" y="1667"/><mxPoint x="738" y="1365"/></Array></mxGeometry></mxCell><mxCell id="SSMAgentRole|StateMachineExpressSync" value="SSMServiceRoleArn&#xA;Statement" style="edgeStyle=orthogonalEdgeStyle;rounded=1;orthogonalLoop=1;jettySize=auto;html=1;labelBackgroundColor=none;fontColor=#EA6B66;noEdgeStyle=1;orthogonal=1;" edge="1" parent="1" source="45" target="26"><mxGeometry relative="1" as="geometry"><Array as="points"><mxPoint x="566" y="1675"/><mxPoint x="650" y="1675"/><mxPoint x="900" y="1675"/><mxPoint x="900" y="1950"/><mxPoint x="1150" y="1950"/><mxPoint x="1238" y="1391"/></Array></mxGeometry></mxCell><mxCell id="StateMachineLogGroup|StateMachineExpressSync" value="LogGroupArn" style="edgeStyle=orthogonalEdgeStyle;rounded=1;orthogonalLoop=1;jettySize=auto;html=1;labelBackgroundColor=none;fontColor=#EA6B66;noEdgeStyle=1;orthogonal=1;" edge="1" parent="1" source="45" target="46"><mxGeometry relative="1" as="geometry"><Array as="points"><mxPoint x="562" y="1691"/><mxPoint x="738" y="1850"/></Array></mxGeometry></mxCell><mxCell id="StateMachineExpressSync|StateMachineApi" value="application/json" style="edgeStyle=orthogonalEdgeStyle;rounded=1;orthogonalLoop=1;jettySize=auto;html=1;labelBackgroundColor=none;fontColor=#EA6B66;noEdgeStyle=1;orthogonal=1;" edge="1" parent="1" source="47" target="45"><mxGeometry relative="1" as="geometry"><Array as="points"><mxPoint x="62" y="1413.3333333333333"/><mxPoint x="150" y="1475"/><mxPoint x="400" y="1475"/><mxPoint x="488" y="1685"/></Array></mxGeometry></mxCell><mxCell id="CustomAuthorizer|StateMachineApi" value="FunctionArn" style="edgeStyle=orthogonalEdgeStyle;rounded=1;orthogonalLoop=1;jettySize=auto;html=1;labelBackgroundColor=none;fontColor=#EA6B66;noEdgeStyle=1;orthogonal=1;" edge="1" parent="1" source="47" target="3"><mxGeometry relative="1" as="geometry"><Array as="points"><mxPoint x="62" y="1386.6666666666667"/><mxPoint x="238" y="1035"/></Array></mxGeometry></mxCell><mxCell id="StateMachineApiRole|StateMachineApi" value="credentials" style="edgeStyle=orthogonalEdgeStyle;rounded=1;orthogonalLoop=1;jettySize=auto;html=1;labelBackgroundColor=none;fontColor=#EA6B66;noEdgeStyle=1;orthogonal=1;" edge="1" parent="1" source="47" target="48"><mxGeometry relative="1" as="geometry"><Array as="points"><mxPoint x="64" y="1400"/><mxPoint x="238" y="1400"/></Array></mxGeometry></mxCell><mxCell id="StateMachineExpressSync|StateMachineApiRole" value="PolicyDocument" style="edgeStyle=orthogonalEdgeStyle;rounded=1;orthogonalLoop=1;jettySize=auto;html=1;labelBackgroundColor=none;fontColor=#EA6B66;noEdgeStyle=1;orthogonal=1;" edge="1" parent="1" source="48" target="45"><mxGeometry relative="1" as="geometry"><Array as="points"><mxPoint x="312" y="1400"/><mxPoint x="488" y="1665"/></Array></mxGeometry></mxCell></root></mxGraphModel>
            </diagram>
          </mxfile>